<svg width="25" height="25" viewBox="0 0 25 25" fill="none" xmlns="http://www.w3.org/2000/svg">
<path d="M12.5 25C19.4036 25 25 19.4036 25 12.5C25 5.59644 19.4036 0 12.5 0C5.59644 0 0 5.59644 0 12.5C0 19.4036 5.59644 25 12.5 25Z" fill="#503824"/>
<path d="M16.0598 13.5598L16.481 10.788H13.8315V8.99455C13.8315 8.23368 14.1984 7.49999 15.394 7.49999H16.6033V5.14945C16.6033 5.14945 15.5027 4.95923 14.4565 4.95923C12.269 4.95923 10.8424 6.29075 10.8424 8.68205V10.788H8.41034V13.5598H10.8424V20.2446H13.8315V13.5598H16.0598Z" fill="white"/>
</svg>
