<svg width="25" height="25" viewBox="0 0 25 25" fill="none" xmlns="http://www.w3.org/2000/svg">
<path d="M12.5 25C19.4036 25 25 19.4036 25 12.5C25 5.59644 19.4036 0 12.5 0C5.59644 0 0 5.59644 0 12.5C0 19.4036 5.59644 25 12.5 25Z" fill="#503824"/>
<path d="M15.856 8.43744C15.4483 8.43744 15.1087 8.76353 15.1087 9.18472C15.1087 9.60592 15.4348 9.932 15.856 9.932C16.2772 9.932 16.6032 9.60592 16.6032 9.18472C16.6032 8.76353 16.2772 8.43744 15.856 8.43744Z" fill="white"/>
<path d="M12.5544 9.38861C10.8288 9.38861 9.42935 10.7881 9.42935 12.5136C9.42935 14.2392 10.8288 15.6386 12.5544 15.6386C14.2799 15.6386 15.6794 14.2392 15.6794 12.5136C15.6794 10.7881 14.2799 9.38861 12.5544 9.38861ZM12.5544 14.5109C11.4538 14.5109 10.5571 13.6142 10.5571 12.5136C10.5571 11.4131 11.4538 10.5163 12.5544 10.5163C13.6549 10.5163 14.5516 11.4131 14.5516 12.5136C14.5516 13.6142 13.6549 14.5109 12.5544 14.5109Z" fill="white"/>
<path d="M15.0408 18.8315H9.98642C7.89402 18.8315 6.18207 17.1195 6.18207 15.0272V9.97281C6.18207 7.88041 7.89402 6.16846 9.98642 6.16846H15.0408C17.1332 6.16846 18.8451 7.88041 18.8451 9.97281V15.0272C18.8451 17.1195 17.1332 18.8315 15.0408 18.8315ZM9.97283 7.36411C8.53261 7.36411 7.36413 8.53259 7.36413 9.97281V15.0272C7.36413 16.4674 8.53261 17.6358 9.97283 17.6358H15.0272C16.4674 17.6358 17.6359 16.4674 17.6359 15.0272V9.97281C17.6359 8.53259 16.4674 7.36411 15.0272 7.36411H9.97283Z" fill="white"/>
</svg>
