<svg width="25" height="25" viewBox="0 0 25 25" fill="none" xmlns="http://www.w3.org/2000/svg">
<path d="M12.5 25C19.4036 25 25 19.4036 25 12.5C25 5.59644 19.4036 0 12.5 0C5.59644 0 0 5.59644 0 12.5C0 19.4036 5.59644 25 12.5 25Z" fill="#503824"/>
<path d="M12.5 6.7934C11.9429 6.7934 10.8967 8.57329 10.7744 11.8477H14.2119C14.0897 8.57329 13.0435 6.7934 12.4864 6.7934H12.5Z" fill="white"/>
<path d="M10.788 13.1658C10.9103 16.4402 11.9565 18.2201 12.5136 18.2201C13.0706 18.2201 14.1168 16.4402 14.2391 13.1658H10.8016H10.788Z" fill="white"/>
<path d="M15.5299 11.8479H18.8315C18.5598 9.14408 16.6032 6.95658 14.0217 6.31799C14.932 7.4593 15.4483 9.61962 15.5299 11.8479Z" fill="white"/>
<path d="M9.48368 11.8479C9.5652 9.61962 10.0815 7.4593 10.9918 6.31799C8.41031 6.94299 6.45379 9.14408 6.18205 11.8479H9.48368Z" fill="white"/>
<path d="M15.5299 13.1658C15.4483 15.394 14.932 17.5544 14.0217 18.6957C16.6032 18.0707 18.5598 15.8696 18.8315 13.1658H15.5299Z" fill="white"/>
<path d="M9.48368 13.1658H6.18205C6.45379 15.8696 8.41031 18.0571 10.9918 18.6957C10.0815 17.5544 9.5652 15.394 9.48368 13.1658Z" fill="white"/>
</svg>
