<svg width="74" height="22" viewBox="0 0 74 22" fill="none" xmlns="http://www.w3.org/2000/svg">
<mask id="mask0_10465_18" style="mask-type:luminance" maskUnits="userSpaceOnUse" x="0" y="0" width="22" height="22">
<path d="M0.531494 0H21.7487V21.2172H0.531494V0Z" fill="white"/>
</mask>
<g mask="url(#mask0_10465_18)">
<mask id="mask1_10465_18" style="mask-type:luminance" maskUnits="userSpaceOnUse" x="0" y="0" width="22" height="22">
<path d="M11.1401 0C5.28101 0 0.531494 4.74952 0.531494 10.6086C0.531494 16.4677 5.28101 21.2172 11.1401 21.2172C16.9992 21.2172 21.7487 16.4677 21.7487 10.6086C21.7487 4.74952 16.9992 0 11.1401 0Z" fill="white"/>
</mask>
<g mask="url(#mask1_10465_18)">
<path d="M0.531494 0H21.7487V21.2172H0.531494V0Z" fill="#00BF63"/>
</g>
</g>
<mask id="mask2_10465_18" style="mask-type:luminance" maskUnits="userSpaceOnUse" x="0" y="0" width="22" height="22">
<path d="M0.531494 0H21.7386V21.2071H0.531494V0Z" fill="white"/>
</mask>
<g mask="url(#mask2_10465_18)">
<mask id="mask3_10465_18" style="mask-type:luminance" maskUnits="userSpaceOnUse" x="0" y="0" width="22" height="22">
<path d="M11.1351 0C5.28101 0 0.531494 4.74952 0.531494 10.6036C0.531494 16.4627 5.28101 21.2071 11.1351 21.2071C16.9941 21.2071 21.7386 16.4627 21.7386 10.6036C21.7386 4.74952 16.9941 0 11.1351 0Z" fill="white"/>
</mask>
<g mask="url(#mask3_10465_18)">
<path d="M11.1351 0C5.28101 0 0.531494 4.74952 0.531494 10.6036C0.531494 16.4627 5.28101 21.2072 11.1351 21.2072C16.9941 21.2072 21.7386 16.4627 21.7386 10.6036C21.7386 4.74952 16.9941 0 11.1351 0Z" stroke="white" stroke-width="2"/>
</g>
</g>
<path d="M11.0467 14.5453C10.5346 14.5453 10.0627 14.4851 9.62085 14.3646C9.17903 14.2441 8.84767 14.0985 8.6368 13.9228C8.47614 13.8023 8.39581 13.6968 8.39581 13.6014C8.39581 13.496 8.44602 13.3554 8.55647 13.1797C8.67697 13.009 8.76734 12.9186 8.83763 12.9186C8.87779 12.9186 8.96816 12.9588 9.11878 13.0391C9.36982 13.1898 9.65097 13.3153 9.96225 13.4207C10.2685 13.5161 10.63 13.5613 11.0467 13.5613C11.5387 13.5613 11.9404 13.4307 12.2517 13.1596C12.573 12.8785 12.7336 12.512 12.7336 12.0551C12.7336 11.7338 12.6433 11.4727 12.4726 11.2719C12.2968 11.061 12.091 10.8903 11.85 10.7698C11.609 10.6393 11.2526 10.4836 10.7856 10.3079C10.2886 10.1071 9.89196 9.92635 9.60076 9.76569C9.31961 9.60503 9.06858 9.36404 8.85771 9.04272C8.65689 8.7214 8.55647 8.29966 8.55647 7.77752C8.55647 7.3106 8.66693 6.89388 8.89788 6.5324C9.13887 6.17091 9.47023 5.88976 9.902 5.68893C10.3438 5.48811 10.8459 5.3877 11.4082 5.3877C11.6994 5.3877 12.0308 5.42786 12.3922 5.50819C12.7537 5.58852 13.0248 5.704 13.2156 5.84959C13.3863 5.94499 13.4767 6.05042 13.4767 6.17091C13.4767 6.26631 13.4215 6.40688 13.316 6.59265C13.2056 6.76837 13.1252 6.85372 13.075 6.85372C13.0198 6.85372 12.9545 6.83364 12.8742 6.79347C12.7939 6.75331 12.7387 6.72318 12.7136 6.69306C12.2818 6.48219 11.84 6.37174 11.3881 6.37174C10.8911 6.37174 10.4894 6.50228 10.1832 6.75331C9.87188 7.00936 9.72126 7.36582 9.72126 7.81768C9.72126 8.1139 9.79155 8.35489 9.94217 8.54065C10.1028 8.71637 10.2735 8.85193 10.4643 8.9423C10.6501 9.02263 10.9865 9.15819 11.4684 9.34395C11.9906 9.54478 12.4123 9.74058 12.7336 9.92635C13.055 10.1171 13.3261 10.3832 13.557 10.7296C13.783 11.066 13.8984 11.5078 13.8984 12.0551C13.8984 12.8182 13.6374 13.4307 13.1152 13.8826C12.6031 14.3244 11.9153 14.5453 11.0467 14.5453Z" fill="white"/>
<mask id="mask4_10465_18" style="mask-type:luminance" maskUnits="userSpaceOnUse" x="17" y="0" width="22" height="22">
<path d="M17.0644 0H38.2766V21.2172H17.0644V0Z" fill="white"/>
</mask>
<g mask="url(#mask4_10465_18)">
<mask id="mask5_10465_18" style="mask-type:luminance" maskUnits="userSpaceOnUse" x="17" y="0" width="22" height="22">
<path d="M27.668 0C21.8139 0 17.0644 4.74952 17.0644 10.6086C17.0644 16.4677 21.8139 21.2172 27.668 21.2172C33.5271 21.2172 38.2766 16.4677 38.2766 10.6086C38.2766 4.74952 33.5271 0 27.668 0Z" fill="white"/>
</mask>
<g mask="url(#mask5_10465_18)">
<path d="M17.0644 0H38.2766V21.2172H17.0644V0Z" fill="#CB6CE6"/>
</g>
</g>
<mask id="mask6_10465_18" style="mask-type:luminance" maskUnits="userSpaceOnUse" x="17" y="0" width="22" height="22">
<path d="M17.0644 0H38.2716V21.2071H17.0644V0Z" fill="white"/>
</mask>
<g mask="url(#mask6_10465_18)">
<mask id="mask7_10465_18" style="mask-type:luminance" maskUnits="userSpaceOnUse" x="17" y="0" width="22" height="22">
<path d="M27.668 0C21.8089 0 17.0644 4.74952 17.0644 10.6036C17.0644 16.4627 21.8089 21.2071 27.668 21.2071C33.5221 21.2071 38.2716 16.4627 38.2716 10.6036C38.2716 4.74952 33.5221 0 27.668 0Z" fill="white"/>
</mask>
<g mask="url(#mask7_10465_18)">
<path d="M27.668 0C21.8089 0 17.0644 4.74952 17.0644 10.6036C17.0644 16.4627 21.8089 21.2072 27.668 21.2072C33.5221 21.2072 38.2716 16.4627 38.2716 10.6036C38.2716 4.74952 33.5221 0 27.668 0Z" stroke="white" stroke-width="2"/>
</g>
</g>
<path d="M28.5543 14.5453C27.1334 14.5453 26.0841 14.1788 25.4013 13.4408C24.7285 12.6927 24.3972 11.5329 24.3972 9.96651C24.3972 6.91397 25.7879 5.3877 28.5744 5.3877C28.986 5.3877 29.3877 5.4379 29.7793 5.52827C30.1659 5.62367 30.4822 5.7291 30.7232 5.84959C30.924 5.97009 31.0244 6.08556 31.0244 6.191C31.0244 6.31149 30.9692 6.46713 30.8638 6.65289C30.7533 6.84368 30.6629 6.93405 30.5826 6.93405C30.5525 6.93405 30.447 6.88384 30.2613 6.77339C30.0705 6.66796 29.8396 6.57256 29.5584 6.49223C29.2772 6.4119 28.9559 6.37174 28.5944 6.37174C27.5602 6.37174 26.797 6.66294 26.305 7.23529C25.823 7.81266 25.5821 8.73144 25.5821 9.98659C25.5821 11.2217 25.823 12.1254 26.305 12.6977C26.787 13.2751 27.5351 13.5613 28.5543 13.5613C28.966 13.5613 29.3224 13.5161 29.6186 13.4207C29.9249 13.3153 30.2211 13.1898 30.5023 13.0391C30.6228 12.9588 30.7081 12.9186 30.7633 12.9186C30.8286 12.9186 30.914 13.014 31.0244 13.1998C31.1449 13.3906 31.2052 13.5312 31.2052 13.6215C31.2052 13.742 31.0696 13.8826 30.8035 14.0433C30.5324 14.1939 30.201 14.3144 29.7994 14.4047C29.4078 14.4951 28.9961 14.5453 28.5543 14.5453Z" fill="white"/>
<mask id="mask8_10465_18" style="mask-type:luminance" maskUnits="userSpaceOnUse" x="34" y="0" width="22" height="22">
<path d="M34.6517 0H55.8638V21.2172H34.6517V0Z" fill="white"/>
</mask>
<g mask="url(#mask8_10465_18)">
<mask id="mask9_10465_18" style="mask-type:luminance" maskUnits="userSpaceOnUse" x="34" y="0" width="22" height="22">
<path d="M45.2603 0C39.4012 0 34.6517 4.74952 34.6517 10.6086C34.6517 16.4677 39.4012 21.2172 45.2603 21.2172C51.1193 21.2172 55.8638 16.4677 55.8638 10.6086C55.8638 4.74952 51.1193 0 45.2603 0Z" fill="white"/>
</mask>
<g mask="url(#mask9_10465_18)">
<path d="M34.6517 0H55.8638V21.2172H34.6517V0Z" fill="#FF3131"/>
</g>
</g>
<mask id="mask10_10465_18" style="mask-type:luminance" maskUnits="userSpaceOnUse" x="34" y="0" width="22" height="22">
<path d="M34.6517 0H55.8588V21.2071H34.6517V0Z" fill="white"/>
</mask>
<g mask="url(#mask10_10465_18)">
<mask id="mask11_10465_18" style="mask-type:luminance" maskUnits="userSpaceOnUse" x="34" y="0" width="22" height="22">
<path d="M45.2552 0C39.3962 0 34.6517 4.74952 34.6517 10.6036C34.6517 16.4627 39.3962 21.2071 45.2552 21.2071C51.1093 21.2071 55.8588 16.4627 55.8588 10.6036C55.8588 4.74952 51.1093 0 45.2552 0Z" fill="white"/>
</mask>
<g mask="url(#mask11_10465_18)">
<path d="M45.2552 0C39.3962 0 34.6517 4.74952 34.6517 10.6036C34.6517 16.4627 39.3962 21.2072 45.2552 21.2072C51.1093 21.2072 55.8588 16.4627 55.8588 10.6036C55.8588 4.74952 51.1093 0 45.2552 0Z" stroke="white" stroke-width="2"/>
</g>
</g>
<path d="M45.0534 14.485C44.7421 14.485 44.5714 14.4197 44.5312 14.2842L41.5791 5.82944C41.549 5.76418 41.5389 5.70895 41.5389 5.66878C41.5389 5.52319 41.7247 5.44788 42.1012 5.44788H42.2217C42.5129 5.44788 42.6836 5.51816 42.7238 5.6487L45.1136 12.5169L45.2341 13.1796H45.2743L45.4148 12.4968L47.7846 5.6487C47.8348 5.51816 48.0105 5.44788 48.3067 5.44788H48.3871C48.7485 5.44788 48.9293 5.52319 48.9293 5.66878C48.9293 5.70895 48.9192 5.7692 48.9092 5.84953L45.9571 14.2842C45.9169 14.4197 45.7412 14.485 45.4349 14.485H45.0534Z" fill="white"/>
<mask id="mask12_10465_18" style="mask-type:luminance" maskUnits="userSpaceOnUse" x="52" y="0" width="22" height="22">
<path d="M52.3494 0H73.5616V21.2172H52.3494V0Z" fill="white"/>
</mask>
<g mask="url(#mask12_10465_18)">
<mask id="mask13_10465_18" style="mask-type:luminance" maskUnits="userSpaceOnUse" x="52" y="0" width="22" height="22">
<path d="M62.953 0C57.0989 0 52.3494 4.74952 52.3494 10.6086C52.3494 16.4677 57.0989 21.2172 62.953 21.2172C68.8121 21.2172 73.5616 16.4677 73.5616 10.6086C73.5616 4.74952 68.8121 0 62.953 0Z" fill="white"/>
</mask>
<g mask="url(#mask13_10465_18)">
<path d="M52.3494 0H73.5616V21.2172H52.3494V0Z" fill="white"/>
</g>
</g>
<mask id="mask14_10465_18" style="mask-type:luminance" maskUnits="userSpaceOnUse" x="52" y="0" width="22" height="22">
<path d="M52.3494 0H73.5566V21.2071H52.3494V0Z" fill="white"/>
</mask>
<g mask="url(#mask14_10465_18)">
<mask id="mask15_10465_18" style="mask-type:luminance" maskUnits="userSpaceOnUse" x="52" y="0" width="22" height="22">
<path d="M62.953 0C57.0939 0 52.3494 4.74952 52.3494 10.6036C52.3494 16.4627 57.0939 21.2071 62.953 21.2071C68.8071 21.2071 73.5566 16.4627 73.5566 10.6036C73.5566 4.74952 68.8071 0 62.953 0Z" fill="white"/>
</mask>
<g mask="url(#mask15_10465_18)">
<path d="M62.953 0C57.0939 0 52.3494 4.74952 52.3494 10.6036C52.3494 16.4627 57.0939 21.2072 62.953 21.2072C68.8071 21.2072 73.5566 16.4627 73.5566 10.6036C73.5566 4.74952 68.8071 0 62.953 0Z" stroke="#CEC7C1" stroke-width="2"/>
</g>
</g>
<path d="M57.7051 11.2145H56.4551V12.4547H55.8105V11.2145H54.5605V10.5846H55.8105V9.34436H56.4551V10.5846H57.7051V11.2145ZM61.2183 12.5035H58.5474V11.9103C58.7736 11.7312 58.9762 11.562 59.1553 11.4025C59.3359 11.243 59.4946 11.0916 59.6313 10.9484C59.8088 10.7612 59.9373 10.5968 60.0171 10.4552C60.0968 10.3136 60.1367 10.1679 60.1367 10.0182C60.1367 9.84892 60.0863 9.71952 59.9854 9.63C59.8844 9.53886 59.7437 9.49329 59.563 9.49329C59.4702 9.49329 59.3823 9.50468 59.2993 9.52747C59.2179 9.55025 59.1349 9.57955 59.0503 9.61536C58.9673 9.65279 58.8965 9.69104 58.8379 9.7301C58.7793 9.76917 58.7354 9.79846 58.7061 9.81799H58.6353V9.02454C58.7378 8.97571 58.8981 8.92607 59.1162 8.87561C59.3343 8.82353 59.5443 8.79749 59.7461 8.79749C60.1774 8.79749 60.5037 8.89351 60.7251 9.08557C60.9481 9.27763 61.0596 9.54781 61.0596 9.89612C61.0596 10.111 61.0091 10.3217 60.9082 10.5284C60.8073 10.7335 60.6396 10.9541 60.4053 11.1901C60.2588 11.3349 60.1164 11.4643 59.978 11.5782C59.8397 11.6906 59.7396 11.7703 59.6777 11.8175H61.2183V12.5035ZM64.3213 9.59094L62.7734 12.5035H61.7578L63.3813 9.55432H61.6479V8.86829H64.3213V9.59094ZM67.4951 11.4025C67.4951 11.5799 67.4618 11.7418 67.395 11.8883C67.3299 12.0348 67.2339 12.1593 67.1069 12.2618C66.9784 12.3644 66.827 12.4433 66.6528 12.4987C66.4803 12.5524 66.2695 12.5792 66.0205 12.5792C65.7373 12.5792 65.494 12.5556 65.2905 12.5084C65.0887 12.4612 64.9243 12.4083 64.7974 12.3497V11.5612H64.8853C65.0187 11.6458 65.175 11.719 65.354 11.7809C65.5347 11.8427 65.6991 11.8737 65.8472 11.8737C65.9351 11.8737 66.0303 11.8663 66.1328 11.8517C66.237 11.8354 66.3241 11.8012 66.394 11.7491C66.4494 11.7085 66.4933 11.6588 66.5259 11.6002C66.5601 11.54 66.5771 11.4554 66.5771 11.3463C66.5771 11.2389 66.5535 11.1567 66.5063 11.0997C66.4591 11.0411 66.3965 10.9988 66.3184 10.9728C66.2402 10.9451 66.1466 10.9296 66.0376 10.9264C65.9285 10.9231 65.8325 10.9215 65.7495 10.9215H65.5933V10.2819H65.7373C65.848 10.2819 65.9497 10.277 66.0425 10.2672C66.1353 10.2574 66.2142 10.2379 66.2793 10.2086C66.3444 10.1777 66.3949 10.1346 66.4307 10.0792C66.4681 10.0239 66.4868 9.94902 66.4868 9.85461C66.4868 9.78137 66.4697 9.72196 66.4355 9.67639C66.4014 9.62919 66.359 9.59257 66.3086 9.56653C66.25 9.53723 66.1816 9.5177 66.1035 9.50793C66.0254 9.49817 65.9587 9.49329 65.9033 9.49329C65.8138 9.49329 65.7227 9.50387 65.6299 9.52502C65.5371 9.54618 65.4468 9.57304 65.3589 9.60559C65.2905 9.63163 65.2189 9.66581 65.144 9.70813C65.0692 9.74882 65.0138 9.77974 64.978 9.8009H64.9023V9.02209C65.0277 8.96838 65.1961 8.91711 65.4077 8.86829C65.6209 8.81783 65.8382 8.7926 66.0596 8.7926C66.276 8.7926 66.4632 8.81132 66.6211 8.84875C66.7806 8.88619 66.9165 8.94071 67.0288 9.01233C67.1525 9.08883 67.2453 9.18648 67.3071 9.3053C67.369 9.42249 67.3999 9.55514 67.3999 9.70325C67.3999 9.90995 67.3397 10.0914 67.2192 10.2477C67.1004 10.4023 66.9434 10.5024 66.748 10.548V10.5822C66.8343 10.5952 66.9181 10.6171 66.9995 10.6481C67.0825 10.679 67.1631 10.7295 67.2412 10.7994C67.3145 10.8629 67.3747 10.9451 67.4219 11.046C67.4707 11.1453 67.4951 11.2641 67.4951 11.4025ZM70.7227 10.6847C70.7227 10.9988 70.6974 11.2739 70.647 11.5099C70.5965 11.7459 70.516 11.9428 70.4053 12.1007C70.2946 12.2586 70.1506 12.3782 69.9731 12.4596C69.7957 12.5393 69.5785 12.5792 69.3213 12.5792C69.0658 12.5792 68.8493 12.5393 68.6719 12.4596C68.4945 12.3782 68.3496 12.257 68.2373 12.0958C68.1266 11.9363 68.0461 11.7402 67.9956 11.5074C67.9451 11.2731 67.9199 10.9996 67.9199 10.6871C67.9199 10.3649 67.9443 10.0898 67.9932 9.86194C68.0436 9.63407 68.1266 9.43795 68.2422 9.27356C68.3561 9.11243 68.5026 8.9928 68.6816 8.91467C68.8607 8.83492 69.0739 8.79504 69.3213 8.79504C69.5833 8.79504 69.8014 8.83655 69.9756 8.91956C70.1514 9.00094 70.2954 9.12301 70.4077 9.28577C70.5184 9.44527 70.5981 9.64221 70.647 9.87659C70.6974 10.111 70.7227 10.3803 70.7227 10.6847ZM69.8071 10.6847C69.8071 10.2355 69.7697 9.92053 69.6948 9.73987C69.6216 9.55758 69.4971 9.46643 69.3213 9.46643C69.1471 9.46643 69.0226 9.55758 68.9478 9.73987C68.8729 9.92053 68.8354 10.2371 68.8354 10.6896C68.8354 11.1323 68.8729 11.4464 68.9478 11.632C69.0226 11.8159 69.1471 11.9078 69.3213 11.9078C69.4954 11.9078 69.62 11.8159 69.6948 11.632C69.7697 11.4464 69.8071 11.1307 69.8071 10.6847Z" fill="#D6D1CC"/>
</svg>
